<svg width="64" height="64" viewBox="0 0 64 64" fill="none" xmlns="http://www.w3.org/2000/svg">
<path d="M54.5113 18.9687L32 6L9.48871 18.9687L9.48905 18.9689L9.48865 45.0579L31.9999 58L32.0593 57.9657L32.0959 57.9866L32.0957 57.9446L54.5113 44.9828V18.9688H54.5111L54.5113 18.9687Z" fill="url(#paint0_linear_1725:1268)"/>
<path d="M54.511 18.969L32 6L43.311 20.715L54.511 18.969Z" fill="url(#paint1_linear_1725:1268)"/>
<path d="M20.689 43.3108V20.7148L9.48901 18.9688V45.0577L20.689 43.3108Z" fill="url(#paint2_linear_1725:1268)"/>
<path d="M9.48901 18.969L32 6L20.689 20.715L9.48901 18.969Z" fill="url(#paint3_linear_1725:1268)"/>
<path d="M54.511 18.969L32 6L43.311 20.715L54.511 18.969Z" fill="url(#paint4_linear_1725:1268)"/>
<path d="M43.311 43.3105L32 57.9995L54.511 44.9825L43.311 43.3105Z" fill="url(#paint5_linear_1725:1268)"/>
<path d="M54.511 18.9688L43.311 20.7148V43.3108L54.511 44.9828V18.9688Z" fill="url(#paint6_linear_1725:1268)"/>
<path d="M54.511 18.9688L43.311 20.7148V43.3108L54.511 44.9828V18.9688Z" fill="url(#paint7_linear_1725:1268)"/>
<path d="M32 57.9995L20.689 43.3105L9.48901 45.0575L32 57.9995Z" fill="url(#paint8_linear_1725:1268)"/>
<path d="M43.3109 20.7148H20.6913V43.3343H43.3109V20.7148Z" fill="url(#paint9_linear_1725:1268)"/>
<path d="M43.2082 20.8193H20.7948V43.2325H43.2082V20.8193Z" fill="url(#paint10_linear_1725:1268)"/>
<path d="M25.9999 1.97266H2V25.9727H25.9999V1.97266Z" fill="black"/>
<path d="M26 13.6822V9.28516L9.396 18.8512L20.53 20.5872L26 13.6822Z" fill="url(#paint11_linear_1725:1268)"/>
<path d="M26 20.5869H20.5316V25.9727H26V20.5869Z" fill="url(#paint12_linear_1725:1268)"/>
<path d="M20.53 25.9736V20.5876L9.396 18.8516V25.9736H20.53Z" fill="url(#paint13_linear_1725:1268)"/>
<path d="M17.6686 18.9092H5.927V22.169H17.6686V18.9092Z" fill="white"/>
<defs>
<linearGradient id="paint0_linear_1725:1268" x1="10.0915" y1="10.1049" x2="52.954" y2="52.9673" gradientUnits="userSpaceOnUse">
<stop offset="0.20773" stop-color="#FFB60D"/>
<stop offset="0.44753" stop-color="#FF318C"/>
<stop offset="0.90836" stop-color="#6B57FF"/>
</linearGradient>
<linearGradient id="paint1_linear_1725:1268" x1="33.8371" y1="2.69103" x2="60.6993" y2="33.2542" gradientUnits="userSpaceOnUse">
<stop  offset="0" stop-color="#FFB60D"/>
<stop offset="0.4389" stop-color="#FF318C"/>
<stop offset="0.93652" stop-color="#E30871"/>
</linearGradient>
<linearGradient id="paint2_linear_1725:1268" x1="7.36364" y1="25.1611" x2="37.2235" y2="55.0209" gradientUnits="userSpaceOnUse">
<stop offset="0.07259" stop-color="#FFB60D"/>
<stop offset="0.68597" stop-color="#FF318C" stop-opacity="0"/>
</linearGradient>
<linearGradient id="paint3_linear_1725:1268" x1="21.2544" y1="9.38329" x2="18.2697" y2="27.5302" gradientUnits="userSpaceOnUse">
<stop offset="0.04176" stop-color="#FFCF5F"/>
<stop offset="0.40672" stop-color="#FFB60D"/>
<stop offset="1" stop-color="#FF318C" stop-opacity="0"/>
</linearGradient>
<linearGradient id="paint4_linear_1725:1268" x1="35.5648" y1="6.49562" x2="65.3721" y2="36.3029" gradientUnits="userSpaceOnUse">
<stop offset="0.01556" stop-color="#FFB60D"/>
<stop offset="0.42361" stop-color="#FF318C" stop-opacity="0"/>
</linearGradient>
<linearGradient id="paint5_linear_1725:1268" x1="30.717" y1="63.7502" x2="53.321" y2="39.3951" gradientUnits="userSpaceOnUse">
<stop offset="0.33598" stop-color="#D123FF" stop-opacity="0.4"/>
<stop offset="0.72079" stop-color="#8F45FF" stop-opacity="0.78823"/>
<stop offset="0.92376" stop-color="#6B57FF"/>
</linearGradient>
<linearGradient id="paint6_linear_1725:1268" x1="29.0679" y1="11.2963" x2="59.0494" y2="41.2778" gradientUnits="userSpaceOnUse">
<stop offset="0.01556" stop-color="#FFB60D"/>
<stop offset="0.42361" stop-color="#FF318C"/>
<stop offset="0.92935" stop-color="#6B57FF"/>
</linearGradient>
<linearGradient id="paint7_linear_1725:1268" x1="42.4467" y1="16.0996" x2="48.2967" y2="29.7098" gradientUnits="userSpaceOnUse">
<stop offset="0.04611" stop-color="#FFDE17" stop-opacity="0.6"/>
<stop offset="0.43474" stop-color="#FE2857" stop-opacity="0.4"/>
<stop offset="0.80437" stop-color="#FE2857" stop-opacity="0"/>
</linearGradient>
<linearGradient id="paint8_linear_1725:1268" x1="8.53284" y1="37.5879" x2="29.2077" y2="58.3896" gradientUnits="userSpaceOnUse">
<stop offset="0.07259" stop-color="#FFB40D"/>
<stop offset="0.68597" stop-color="#FF318C" stop-opacity="0"/>
</linearGradient>
<linearGradient id="paint9_linear_1725:1268" x1="16.1863" y1="16.2098" x2="47.3576" y2="47.3811" gradientUnits="userSpaceOnUse">
<stop offset="0.18418" stop-color="#FFB40D"/>
<stop offset="0.69132" stop-color="#FF318C" stop-opacity="0"/>
</linearGradient>
<linearGradient id="paint10_linear_1725:1268" x1="13.7976" y1="32.0259" x2="27.2837" y2="32.0259" gradientUnits="userSpaceOnUse">
<stop  offset="0" stop-color="#F9ED32" stop-opacity="0.6"/>
<stop offset="0.19796" stop-color="#FFC524" stop-opacity="0.4"/>
<stop offset="0.70457" stop-color="#FFC524" stop-opacity="0"/>
</linearGradient>
<linearGradient id="paint11_linear_1725:1268" x1="16.5722" y1="10.2395" x2="22.2016" y2="29.39" gradientUnits="userSpaceOnUse">
<stop offset="0.19796" stop-color="#FE2857" stop-opacity="0.4"/>
<stop offset="0.70457" stop-color="#FFB40D" stop-opacity="0"/>
</linearGradient>
<linearGradient id="paint12_linear_1725:1268" x1="122.877" y1="121.461" x2="161.933" y2="161.116" gradientUnits="userSpaceOnUse">
<stop offset="0.19796" stop-color="#FE2857" stop-opacity="0.4"/>
<stop offset="0.70457" stop-color="#FFB40D" stop-opacity="0"/>
</linearGradient>
<linearGradient id="paint13_linear_1725:1268" x1="71.6698" y1="123.868" x2="177.594" y2="274.707" gradientUnits="userSpaceOnUse">
<stop offset="0.19796" stop-color="#FE2857" stop-opacity="0.4"/>
<stop offset="0.70457" stop-color="#FFB40D" stop-opacity="0"/>
</linearGradient>
</defs>
</svg>
